<svg width="64" height="64" viewBox="0 0 64 64" xmlns="http://www.w3.org/2000/svg">
  <rect width="64" height="64" rx="8" fill="#111"/>
  <rect x="6"  y="6"  width="10" height="10" rx="1" fill="#ff6b6b"/>
  <rect x="18" y="6"  width="10" height="10" rx="1" fill="#ffd93d"/>
  <rect x="30" y="6"  width="10" height="10" rx="1" fill="#6bcb77"/>
  <rect x="42" y="6"  width="10" height="10" rx="1" fill="#4d96ff"/>

  <rect x="6"  y="18" width="10" height="10" rx="1" fill="#ffd93d"/>
  <rect x="18" y="18" width="10" height="10" rx="1" fill="#ff6b6b"/>
  <rect x="30" y="18" width="10" height="10" rx="1" fill="#4d96ff"/>
  <rect x="42" y="18" width="10" height="10" rx="1" fill="#6bcb77"/>

  <rect x="6"  y="30" width="10" height="10" rx="1" fill="#6bcb77"/>
  <rect x="18" y="30" width="10" height="10" rx="1" fill="#4d96ff"/>
  <rect x="30" y="30" width="10" height="10" rx="1" fill="#ff6b6b"/>
  <rect x="42" y="30" width="10" height="10" rx="1" fill="#ffd93d"/>

  <rect x="6"  y="42" width="10" height="10" rx="1" fill="#4d96ff"/>
  <rect x="18" y="42" width="10" height="10" rx="1" fill="#6bcb77"/>
  <rect x="30" y="42" width="10" height="10" rx="1" fill="#ffd93d"/>
  <rect x="42" y="42" width="10" height="10" rx="1" fill="#ff6b6b"/>
</svg>
